<svg id="dashboard-3-line" xmlns="http://www.w3.org/2000/svg" width="22" height="22" viewBox="0 0 22 22">
  <path id="Tracé_507" data-name="Tracé 507" d="M0,0H22V22H0Z" fill="none"/>
  <path id="Tracé_508" data-name="Tracé 508" d="M11,2a9,9,0,1,1-9,9A9,9,0,0,1,11,2Zm0,1.8A7.2,7.2,0,1,0,18.2,11,7.2,7.2,0,0,0,11,3.8Zm3.45,3a.534.534,0,0,1,.743.744q-2.943,4.112-3.238,4.407a1.35,1.35,0,0,1-1.91-1.91q.5-.5,4.4-3.242Zm1.5,3.3a.9.9,0,1,1-.9.9A.9.9,0,0,1,15.95,10.1Zm-9.9,0a.9.9,0,1,1-.9.9A.9.9,0,0,1,6.05,10.1ZM8.136,6.864a.9.9,0,1,1-1.273,0A.9.9,0,0,1,8.136,6.864ZM11,5.15a.9.9,0,1,1-.9.9A.9.9,0,0,1,11,5.15Z"/>
</svg>
