<svg xmlns="http://www.w3.org/2000/svg" width="21.826" height="20.377" viewBox="0 0 21.826 20.377">
  <g id="Group_1190" data-name="Group 1190" transform="translate(0 -17)">
    <g id="Group_23" data-name="Group 23" transform="translate(0 17)">
      <path id="Path_75" data-name="Path 75" d="M19.908,17H1.918A1.92,1.92,0,0,0,0,18.918V31.366a1.92,1.92,0,0,0,1.918,1.918H8.112L7.643,36.1H6.821a.639.639,0,0,0,0,1.279h8.185a.639.639,0,1,0,0-1.279h-.822l-.469-2.814h6.194a1.92,1.92,0,0,0,1.918-1.918V18.918A1.92,1.92,0,0,0,19.908,17ZM12.887,36.1H8.94l.469-2.814h3.009Zm7.661-4.732a.64.64,0,0,1-.639.639H1.918a.64.64,0,0,1-.639-.639V18.918a.64.64,0,0,1,.639-.639h8.355V19a.639.639,0,1,0,1.279,0v-.725h8.355a.64.64,0,0,1,.639.639Z" transform="translate(0 -17)"/>
      <path id="Path_76" data-name="Path 76" d="M71.1,117.092a.639.639,0,0,0-.639.639v2.089H69.007v-4.135a.639.639,0,1,0-1.279,0v4.135H66.279v-6.181a.639.639,0,1,0-1.279,0v6.821a.639.639,0,0,0,.639.639H71.1a.639.639,0,0,0,.639-.639v-2.728A.639.639,0,0,0,71.1,117.092Z" transform="translate(-62.229 -108.908)"/>
      <path id="Path_77" data-name="Path 77" d="M276.709,121a3.707,3.707,0,0,0-2.651,6.3.418.418,0,0,0,.06.06,3.708,3.708,0,1,0,2.591-6.36Zm2.344,3.069h-1.7v-1.7A2.439,2.439,0,0,1,279.053,124.069Zm-2.983-1.7v2.079l-1.469,1.469A2.431,2.431,0,0,1,276.069,122.365Zm-.565,4.453,1.47-1.469h2.079A2.431,2.431,0,0,1,275.5,126.818Z" transform="translate(-261.362 -116.567)"/>
    </g>
  </g>
</svg>
