<svg xmlns="http://www.w3.org/2000/svg" width="21.216" height="25.46" viewBox="0 0 21.216 25.46">
  <g id="Group_1166" data-name="Group 1166" transform="translate(3.416 0)">
    <path id="Path_79" data-name="Path 79" d="M.4,6.365V8.608l-.286-.1a.418.418,0,0,0-.305.011l-2.97,1.273a.424.424,0,0,0-.241.274.425.425,0,0,0,.061.36l2.97,4.243a.42.42,0,0,0,.209.158l5.654,1.944v.2H-2.143a.424.424,0,0,0-.424.424V22.49a.424.424,0,0,0,.424.424H5.495v2.122a.424.424,0,0,0,.424.424H8.465a.424.424,0,0,0,.424-.424V22.914H16.9a.424.424,0,0,0,.424-.424V17.4a.424.424,0,0,0-.424-.424H13.982V13.579a.424.424,0,0,0-.286-.4L8.89,11.526V9.558l5.654-1.944a.42.42,0,0,0,.21-.158l2.97-4.243a.424.424,0,0,0-.18-.633l-2.97-1.273a.419.419,0,0,0-.305-.011L8.89,3.145V.424A.424.424,0,0,0,8.465,0H5.919a.424.424,0,0,0-.424.424V4.312L.689,5.964a.425.425,0,0,0-.286.4ZM8.041,24.611h-1.7v-1.7h1.7Zm5.5-5.092.013,0,.02,0a.407.407,0,0,0,.085-.014L13.7,19.5a.415.415,0,0,0,.286-.4V17.822h2.493v4.243H-1.719V17.822H8.55L13.421,19.5a.4.4,0,0,0,.123.023ZM6.344.849h1.7V3.437l-1.7.583ZM1.252,9.2V6.668L14.389,2.152l2.34,1-2.592,3.7L1.252,11.287Zm6.789.648v1.383l-1.7-.583v-.216ZM.808,12.3c.006,0,.013,0,.019,0H.84a.4.4,0,0,0,.125-.021L4.724,10.99l8.409,2.891V18.5L.247,14.071l-2.592-3.7,2.34-1,.407.14v2.376a.415.415,0,0,0,.285.4l.031.008a.394.394,0,0,0,.089.014Zm0,0"/>
  </g>
</svg>
