<svg xmlns="http://www.w3.org/2000/svg" width="23.27" height="21.63" viewBox="0 0 23.27 21.63">
  <g id="Group_1144" data-name="Group 1144" transform="translate(0.785 1.18)">
    <path id="icons8-company" d="M7.719,9l.541,2.163h.282V30.626H22.9a.361.361,0,0,0,.118,0h4.928a.361.361,0,0,0,.118,0h2.826V25.58h-.721V15.488h.282l.541-2.163H21.516V11.163H21.8L22.339,9Zm.924.721H21.415l-.18.721H20.8a.36.36,0,0,0,0,.721V29.9H9.262V11.163a.36.36,0,0,0,0-.721H8.823Zm2.061.721a.36.36,0,1,0,.36.36A.361.361,0,0,0,10.7,10.442Zm1.442,0a.36.36,0,1,0,.36.36A.361.361,0,0,0,12.145,10.442Zm1.442,0a.36.36,0,1,0,.36.36A.361.361,0,0,0,13.587,10.442Zm1.442,0a.36.36,0,1,0,.36.36A.361.361,0,0,0,15.029,10.442Zm1.442,0a.36.36,0,1,0,.36.36A.361.361,0,0,0,16.47,10.442Zm1.442,0a.36.36,0,1,0,.36.36A.361.361,0,0,0,17.912,10.442Zm1.442,0a.36.36,0,1,0,.36.36A.361.361,0,0,0,19.354,10.442ZM10.7,12.6v2.883h2.163V12.6Zm3.244,0v2.883H16.11V12.6Zm3.244,0v2.883h2.163V12.6Zm-5.767.721h.721v1.442h-.721Zm3.244,0h.721v1.442h-.721Zm3.244,0h.721v1.442h-.721Zm3.6.721h8.549l-.18.721h-.439a.36.36,0,0,0,0,.721V25.58a.36.36,0,1,0,0,.721h.721v3.6h-1.8V27.382H22.6V29.9H21.516Zm.721.721a.36.36,0,1,0,.36.36A.361.361,0,0,0,22.237,14.767Zm1.442,0a.36.36,0,1,0,.36.36A.361.361,0,0,0,23.679,14.767Zm1.442,0a.36.36,0,1,0,.36.36A.361.361,0,0,0,25.121,14.767Zm1.442,0a.36.36,0,1,0,.36.36A.361.361,0,0,0,26.562,14.767Zm1.442,0a.36.36,0,1,0,.36.36A.361.361,0,0,0,28,14.767ZM10.7,16.929v2.883h2.163V16.929Zm3.244,0v2.883H16.11V16.929Zm3.244,0v2.883h2.163V16.929Zm5.406,0v2.883H24.76V16.929Zm3.244,0v2.883H28V16.929Zm-14.417.721h.721v1.442h-.721Zm3.244,0h.721v1.442h-.721Zm3.244,0h.721v1.442h-.721Zm5.406,0h.721v1.442h-.721Zm3.244,0h.721v1.442h-.721ZM10.7,21.254v2.883h2.163V21.254Zm3.244,0v2.883H16.11V21.254Zm3.244,0v2.883h2.163V21.254Zm5.406,0v2.883H24.76V21.254Zm3.244,0v2.883H28V21.254Zm-14.417.721h.721v1.442h-.721Zm3.244,0h.721v1.442h-.721Zm3.244,0h.721v1.442h-.721Zm5.406,0h.721v1.442h-.721Zm3.244,0h.721v1.442h-.721ZM10.7,25.58v2.883h2.163V25.58Zm3.244,0v2.883H16.11V25.58Zm3.244,0v2.883h2.163V25.58Zm5.046,0a.36.36,0,1,0,.36.36A.361.361,0,0,0,22.237,25.58Zm1.442,0a.36.36,0,1,0,.36.36A.361.361,0,0,0,23.679,25.58Zm1.442,0a.36.36,0,1,0,.36.36A.361.361,0,0,0,25.121,25.58Zm1.442,0a.36.36,0,1,0,.36.36A.361.361,0,0,0,26.562,25.58Zm1.442,0a.36.36,0,1,0,.36.36A.361.361,0,0,0,28,25.58Zm-16.58.721h.721v1.442h-.721Zm3.244,0h.721v1.442h-.721Zm3.244,0h.721v1.442h-.721Zm5.406,1.8h1.8a.36.36,0,1,0,.721,0h1.8v1.8H23.318Zm2.163,1.8a.36.36,0,1,0-.36-.36A.361.361,0,0,0,25.481,29.9Z" transform="translate(-8.503 -10.18)"/>
  </g>
</svg>
