<svg xmlns="http://www.w3.org/2000/svg" width="23.443" height="23.444" viewBox="0 0 23.443 23.444">
  <path id="icons8-buy_with_card" d="M12.038,3a.533.533,0,0,0-.513.533v4.8H4.6A1.607,1.607,0,0,0,3,9.926V25.91a.533.533,0,0,0,.771.477l.827-.414.827.414a.533.533,0,0,0,.477,0l.827-.414.827.414a.533.533,0,0,0,.477,0l.827-.414.827.414a.533.533,0,0,0,.477,0l.827-.414.827.414a.533.533,0,0,0,.477,0l.827-.414.827.414a.533.533,0,0,0,.771-.477V23.246h9.058a2.672,2.672,0,0,0,2.664-2.664V13.656a2.672,2.672,0,0,0-2.664-2.664H16.853V9.926A1.536,1.536,0,0,0,15.645,8.49a.533.533,0,0,0-.39-.162H12.59V4.394l.295.148a.533.533,0,0,0,.477,0l.827-.414.827.414a.533.533,0,0,0,.477,0l.827-.414.827.414a.533.533,0,0,0,.477,0l.827-.414.827.414a.533.533,0,0,0,.477,0l.827-.414.827.414a.533.533,0,0,0,.477,0l.295-.148V9.926h1.066V3.533a.533.533,0,0,0-.771-.477l-.827.414-.827-.414a.533.533,0,0,0-.477,0l-.827.414-.827-.414a.533.533,0,0,0-.477,0l-.827.414-.827-.414a.533.533,0,0,0-.477,0l-.827.414-.827-.414a.533.533,0,0,0-.477,0l-.827.414L12.3,3.056A.533.533,0,0,0,12.038,3Zm2.151,3.2a.533.533,0,1,0,0,1.066h2.664a.533.533,0,1,0,0-1.066Zm5.328,0a.533.533,0,1,0,0,1.066h1.066a.533.533,0,1,0,0-1.066Zm0,2.131a.533.533,0,1,0,0,1.066h1.066a.533.533,0,1,0,0-1.066ZM4.6,9.393h9.279c-.073.182-.222.326-.222.533V25.049l-.294-.148a.533.533,0,0,0-.477,0l-.827.414L11.23,24.9a.533.533,0,0,0-.477,0l-.827.414L9.1,24.9a.533.533,0,0,0-.477,0l-.827.414L6.968,24.9a.533.533,0,0,0-.477,0l-.827.414L4.837,24.9a.533.533,0,0,0-.477,0l-.294.148V9.926A.524.524,0,0,1,4.6,9.393Zm10.656,0a.524.524,0,0,1,.533.533v1.066H14.722V9.926A.524.524,0,0,1,15.255,9.393Zm-.533,2.664h9.058a1.591,1.591,0,0,1,1.6,1.6v.533H14.722ZM5.664,13.123a.533.533,0,1,0,0,1.066H8.328a.533.533,0,1,0,0-1.066Zm5.328,0a.533.533,0,1,0,0,1.066h1.066a.533.533,0,1,0,0-1.066ZM5.664,15.254a.533.533,0,1,0,0,1.066H6.73a.533.533,0,1,0,0-1.066Zm5.328,0a.533.533,0,1,0,0,1.066h1.066a.533.533,0,1,0,0-1.066Zm3.73,1.066H25.378v4.262a1.591,1.591,0,0,1-1.6,1.6H14.722ZM5.664,17.385a.533.533,0,1,0,0,1.066H8.328a.533.533,0,1,0,0-1.066Zm5.328,0a.533.533,0,1,0,0,1.066h1.066a.533.533,0,1,0,0-1.066ZM5.664,19.517a.533.533,0,1,0,0,1.066h1.6a.533.533,0,1,0,0-1.066Zm5.328,0a.533.533,0,1,0,0,1.066h1.066a.533.533,0,1,0,0-1.066Z" transform="translate(-3 -2.999)"/>
</svg>
