<svg id="Groupe_4844" data-name="Groupe 4844" xmlns="http://www.w3.org/2000/svg" width="22" height="22" viewBox="0 0 22 22">
  <path id="Tracé_5835" data-name="Tracé 5835" d="M0,0H22V22H0Z" fill="none"/>
  <path id="Tracé_5836" data-name="Tracé 5836" d="M12,12.815v1.818a5.746,5.746,0,0,0-6,5.453H4c0-4.016,3.582-7.271,8-7.271Zm0-.909A5.745,5.745,0,0,1,6,6.453,5.745,5.745,0,0,1,12,1a5.745,5.745,0,0,1,6,5.453A5.745,5.745,0,0,1,12,11.907Zm0-1.818a3.83,3.83,0,0,0,4-3.636,3.83,3.83,0,0,0-4-3.636A3.83,3.83,0,0,0,8,6.453,3.83,3.83,0,0,0,12,10.089ZM21.446,18.3l1.5,1.367L21.536,20.95l-1.5-1.367a4.271,4.271,0,0,1-5.194-.905,3.4,3.4,0,0,1,.334-4.8,4.3,4.3,0,0,1,5.278-.3,3.421,3.421,0,0,1,1,4.721ZM18,18.269a1.915,1.915,0,0,0,2-1.818,2.009,2.009,0,0,0-4,0A1.915,1.915,0,0,0,18,18.269Z" transform="translate(-2)"/>
</svg>
