<svg xmlns="http://www.w3.org/2000/svg" width="17.227" height="20.38" viewBox="0 0 17.227 20.38">
  <g id="Group_1167" data-name="Group 1167" transform="translate(-2.47 -0.005)">
    <path id="Path_117" data-name="Path 117" d="M25.018,14.7a.732.732,0,0,0-.153-.783L22.827,11.88a.716.716,0,0,0-1.012,1.012l.8.8H17.981a.716.716,0,0,0,0,1.433h4.642l-.8.8a.725.725,0,1,0,1.006,1.044l2.025-2.025a.713.713,0,0,0,.166-.248Z" transform="translate(-5.374 -4.237)"/>
    <path id="Path_118" data-name="Path 118" d="M14.651,13.011a.713.713,0,0,0-.713.713v2.91a.72.72,0,0,1-.713.713H10.359V3.026h2.865a.72.72,0,0,1,.713.713V6.56a.716.716,0,1,0,1.433,0V3.746A2.152,2.152,0,0,0,13.225,1.6H10.277A2.14,2.14,0,0,0,7.526.116L3.941,1.307A2.146,2.146,0,0,0,2.47,3.345v13.69a2.146,2.146,0,0,0,1.471,2.038l3.579,1.2a2.129,2.129,0,0,0,2.751-1.484h2.942a2.152,2.152,0,0,0,2.146-2.146V13.73a.713.713,0,0,0-.707-.72ZM8.92,18.226a.72.72,0,0,1-.942.681L4.4,17.71a.72.72,0,0,1-.49-.681V3.345A.72.72,0,0,1,4.4,2.67l3.579-1.2a.72.72,0,0,1,.942.681Z" transform="translate(0)"/>
  </g>
</svg>
