<svg id="pin-distance-line" xmlns="http://www.w3.org/2000/svg" width="24" height="24" viewBox="0 0 24 24">
  <path id="Tracé_509" data-name="Tracé 509" d="M0,0H24V24H0Z" fill="none"/>
  <path id="Tracé_510" data-name="Tracé 510" d="M9.975,8.975a3.5,3.5,0,1,0-4.95,0L7.5,11.45ZM7.5,14.278,3.61,10.39a5.5,5.5,0,1,1,7.78,0L7.5,14.28ZM7.5,8A1.5,1.5,0,1,1,9,6.5,1.5,1.5,0,0,1,7.5,8Zm9,12.45,2.475-2.475a3.5,3.5,0,1,0-4.95,0Zm3.89-1.06L16.5,23.278l-3.89-3.889a5.5,5.5,0,1,1,7.78,0ZM16.5,17A1.5,1.5,0,1,1,18,15.5,1.5,1.5,0,0,1,16.5,17Z" transform="translate(0 0)"/>
</svg>