<svg xmlns="http://www.w3.org/2000/svg" width="23.267" height="23.264" viewBox="0 0 23.267 23.264">
  <g id="Group_1164" data-name="Group 1164" transform="translate(0 -0.04)">
    <g id="Group_55" data-name="Group 55" transform="translate(2.456 5.337)">
      <g id="Group_54" data-name="Group 54">
        <path id="Path_98" data-name="Path 98" d="M72.388,123.852a1.927,1.927,0,0,0-1.323-1.832l-1.43-.474a2.654,2.654,0,0,0,.6-1.684v-.577a2.667,2.667,0,0,0-5.044-1.212,3,3,0,0,0-3.966,0,2.667,2.667,0,0,0-5.044,1.212v.577a2.654,2.654,0,0,0,.6,1.684l-1.43.474a1.927,1.927,0,0,0-1.323,1.832v2.839a.454.454,0,0,0,.454.454h3.233v1.734a.454.454,0,0,0,.454.454H68.247a.454.454,0,0,0,.454-.454v-1.734h3.233a.454.454,0,0,0,.454-.454v-2.839h0Zm-4.819-6.326a1.76,1.76,0,0,1,1.758,1.758v.577a1.758,1.758,0,0,1-.781,1.461.457.457,0,0,0-.082.051,1.754,1.754,0,0,1-2.248-.39v-.652a2.989,2.989,0,0,0-.363-1.432A1.752,1.752,0,0,1,67.57,117.527Zm-6.459,2.805a2.1,2.1,0,1,1,4.2,0V121a2.1,2.1,0,0,1-.938,1.748.456.456,0,0,0-.087.055,2.093,2.093,0,0,1-2.148,0,.455.455,0,0,0-.087-.055A2.1,2.1,0,0,1,61.111,121Zm-4.019-1.047h0a1.758,1.758,0,0,1,3.473-.385,2.99,2.99,0,0,0-.363,1.432v.652a1.755,1.755,0,0,1-2.248.39.459.459,0,0,0-.081-.051,1.758,1.758,0,0,1-.781-1.461v-.577Zm.627,6.318v.634H54.941v-2.385a1.02,1.02,0,0,1,.7-.969l1.98-.656a2.664,2.664,0,0,0,2.769-.186,3.01,3.01,0,0,0,.558.935l-1.749.58A2.154,2.154,0,0,0,57.719,125.6Zm.909,2.822V125.6a1.247,1.247,0,0,1,.856-1.185l2.312-.766a3,3,0,0,0,2.828,0l2.312.766a1.247,1.247,0,0,1,.856,1.185v2.822Zm12.852-2.188H68.7V125.6a2.154,2.154,0,0,0-1.479-2.048l-1.749-.58a3.01,3.01,0,0,0,.558-.935,2.664,2.664,0,0,0,2.769.186l1.98.656a1.02,1.02,0,0,1,.7.969v2.385Z" transform="translate(-54.032 -116.618)"/>
      </g>
    </g>
    <g id="Group_57" data-name="Group 57" transform="translate(1.62 5.401)">
      <g id="Group_56" data-name="Group 56">
        <path id="Path_99" data-name="Path 99" d="M36.355,118.083a.454.454,0,0,0-.625.15l-.011.019a.454.454,0,1,0,.776.473l.01-.017A.454.454,0,0,0,36.355,118.083Z" transform="translate(-35.652 -118.016)"/>
      </g>
    </g>
    <g id="Group_59" data-name="Group 59" transform="translate(0 6.714)">
      <g id="Group_58" data-name="Group 58">
        <path id="Path_100" data-name="Path 100" d="M19.494,159.188H17.238a.454.454,0,0,0-.321.776l.765.765a10.777,10.777,0,0,1-13.63-1.274,10.66,10.66,0,0,1-2.235-11.9.454.454,0,1,0-.832-.366,11.635,11.635,0,0,0,9.856,16.291q.4.027.793.027a11.624,11.624,0,0,0,6.7-2.123l.838.838a.454.454,0,0,0,.776-.321v-2.257A.454.454,0,0,0,19.494,159.188ZM19.04,160.8l-.705-.705h.705Z" transform="translate(0 -146.915)"/>
      </g>
    </g>
    <g id="Group_61" data-name="Group 61" transform="translate(3.319 0.04)">
      <g id="Group_60" data-name="Group 60" transform="translate(0 0)">
        <path id="Path_101" data-name="Path 101" d="M92.8,9.671A11.634,11.634,0,0,0,74.641,2.162L73.8,1.324a.454.454,0,0,0-.776.321V3.9a.454.454,0,0,0,.454.454h2.257a.454.454,0,0,0,.321-.776l-.765-.765A10.726,10.726,0,0,1,91.115,16.092a.454.454,0,1,0,.828.374A11.609,11.609,0,0,0,92.8,9.671ZM73.936,3.447V2.742l.705.705h-.705Z" transform="translate(-73.027 -0.04)"/>
      </g>
    </g>
    <g id="Group_63" data-name="Group 63" transform="translate(20.691 17.071)">
      <g id="Group_62" data-name="Group 62">
        <path id="Path_102" data-name="Path 102" d="M456,374.88a.454.454,0,0,0-.625.147l-.014.022a.454.454,0,1,0,.773.478l.014-.023A.454.454,0,0,0,456,374.88Z" transform="translate(-455.293 -374.812)"/>
      </g>
    </g>
  </g>
</svg>
